<?xml version="1.0" encoding="utf-8"?>
<!-- Generator: Adobe Illustrator 23.0.3, SVG Export Plug-In . SVG Version: 6.00 Build 0)  -->
<svg version="1.1" xmlns="http://www.w3.org/2000/svg" xmlns:xlink="http://www.w3.org/1999/xlink" x="0px" y="0px"
	 viewBox="0 0 500 165" style="enable-background:new 0 0 500 165;" xml:space="preserve">
<style type="text/css">
	.st0{display:none;}
	.st1{display:inline;fill:#292A29;}
	.st2{display:inline;fill:#63A6D9;}
	.st3{fill:#292A29;}
	.st4{fill:#21357D;}
	.st5{fill:#99A2AC;}
	.st6{fill:#FFFFFF;}
	.st7{fill:#1DA5DD;}
	.st8{fill:#62A5D8;}
	.st9{fill:#302E2B;}
	.st10{fill:#003383;}
</style>
<g id="BG" class="st0">
	<rect x="0.7" y="-2.8" class="st2" width="498.7" height="170.7"/>
</g>
<g id="Capa_1">
	<g>
		<path class="st6" d="M362.3,133.1c-0.7-0.6-1.5-1-2.3-1.5s-1.8-0.8-2.8-1c-1-0.3-2.2-0.4-3.3-0.4c-1.9,0-3.7,0.3-5.4,0.9
			c-1.7,0.6-3.1,1.5-4.3,2.7c-1.2,1.2-2.2,2.8-2.9,4.7c-0.7,1.9-1,4.1-1,6.7c0,2.3,0.3,4.3,0.9,6.2c0.6,1.8,1.5,3.4,2.7,4.6
			c1.2,1.3,2.7,2.2,4.4,2.9c1.7,0.7,3.7,1,5.9,1c0.7,0,1.3,0,2.1-0.1c0.7-0.1,1.4-0.2,2.1-0.3c0.7-0.1,1.3-0.3,1.9-0.5
			c0.6-0.2,1.1-0.4,1.5-0.7c0-0.9,0.1-1.9,0.1-2.8c0-0.9,0-1.9,0-2.8c0-1.1,0-2.2-0.1-3.3c0-1.1-0.1-2.1-0.2-3.1
			c0.8,0.2,1.5,0.2,2.2,0.2c0.3,0,0.7,0,1,0c0.3,0,0.7-0.1,1-0.2c-0.1,0.7-0.1,1.8-0.1,3.4c0,1.5,0,3.6,0,6.1c0,0.6,0,1.3,0,1.9
			c0,0.6,0,1.3,0,1.9c-0.7,0.2-1.5,0.5-2.5,0.8c-1,0.3-2,0.5-3.1,0.7c-1.1,0.2-2.2,0.3-3.3,0.5c-1.1,0.1-2.1,0.2-3,0.2
			c-2.8,0-5.3-0.3-7.5-1c-2.2-0.7-4.1-1.7-5.7-3.1c-1.6-1.4-2.8-3.1-3.6-5.2c-0.8-2.1-1.3-4.5-1.3-7.2c0-2.6,0.4-5,1.3-7.1
			c0.9-2.1,2.1-3.8,3.7-5.2c1.6-1.4,3.5-2.5,5.8-3.3c2.3-0.7,4.8-1.1,7.5-1.1c1.6,0,3,0.1,4.2,0.3c1.2,0.2,2.3,0.4,3.3,0.7
			c0.9,0.3,1.8,0.6,2.5,0.9c0.7,0.3,1.4,0.6,1.9,0.9c-0.2,0.4-0.5,1-0.7,1.7c-0.2,0.7-0.3,1.3-0.4,1.9h-0.6
			C363.6,134.2,363,133.7,362.3,133.1z"/>
		<path class="st6" d="M373.6,141.2c0-2.1,0-4.1-0.1-6c-0.1-2-0.2-4-0.3-6c0.9,0.1,1.8,0.1,2.7,0.2c0.9,0,1.8,0.1,2.7,0.1
			c0.9,0,1.8,0,2.7-0.1c0.9-0.1,1.8-0.1,2.7-0.1c1.3,0,2.6,0.1,3.7,0.4c1.2,0.2,2.2,0.7,3.1,1.2c0.9,0.6,1.6,1.3,2.1,2.3
			c0.5,0.9,0.8,2.1,0.8,3.5c0,1.5-0.3,2.8-1,3.8c-0.7,1.1-1.5,2-2.4,2.7c-1,0.7-2,1.2-3.1,1.6c-1.1,0.4-2.1,0.6-3,0.8
			c0.4,0.5,0.9,1.1,1.5,2c0.7,0.8,1.4,1.8,2.2,2.8c0.8,1,1.6,2.1,2.5,3.2c0.9,1.1,1.7,2.2,2.5,3.2c0.8,1,1.6,1.9,2.3,2.8
			c0.7,0.8,1.3,1.5,1.7,1.9c-0.5-0.1-0.9-0.1-1.4-0.1c-0.5,0-0.9,0-1.4,0c-0.4,0-0.9,0-1.4,0c-0.5,0-0.9,0-1.4,0.1
			c-0.5-0.7-1.2-1.6-2.1-2.9c-0.9-1.3-2-2.7-3.1-4.2c-1.2-1.5-2.3-3-3.5-4.5c-1.2-1.5-2.3-2.7-3.3-3.8h-1.8v3.4c0,2.1,0,4.1,0.1,6.1
			c0.1,2,0.2,4,0.3,5.9c-0.7-0.1-1.5-0.1-2.3-0.1c-0.8,0-1.6,0-2.3,0.1c0.1-1.9,0.2-3.9,0.3-5.9c0.1-2,0.1-4,0.1-6.1V141.2z
			 M377.5,143.9c0.4,0.1,0.9,0.2,1.4,0.2c0.5,0,1.1,0,1.7,0c1,0,2-0.1,3-0.3c1-0.2,2-0.6,2.9-1.1c0.9-0.5,1.6-1.3,2.2-2.2
			c0.6-0.9,0.9-2.1,0.9-3.5c0-1.2-0.2-2.2-0.7-3c-0.5-0.8-1-1.4-1.8-1.9c-0.7-0.5-1.5-0.8-2.3-1c-0.8-0.2-1.7-0.3-2.5-0.3
			c-1.1,0-2,0-2.7,0.1c-0.7,0-1.3,0.1-1.8,0.2c-0.1,1.7-0.1,3.4-0.2,5.1c-0.1,1.7-0.1,3.4-0.1,5V143.9z"/>
		<path class="st6" d="M399.5,145.2c0-2.6,0.4-5,1.3-7.1c0.9-2.1,2.1-3.8,3.6-5.2c1.5-1.4,3.4-2.5,5.5-3.3c2.1-0.7,4.5-1.1,7-1.1
			c2.6,0,4.9,0.4,7.1,1.1c2.1,0.7,4,1.8,5.5,3.3c1.5,1.4,2.7,3.2,3.6,5.2c0.9,2.1,1.3,4.4,1.3,7.1c0,2.6-0.4,5-1.3,7.1
			c-0.9,2.1-2.1,3.8-3.6,5.2c-1.5,1.4-3.4,2.5-5.5,3.2c-2.1,0.7-4.5,1.1-7.1,1.1c-2.5,0-4.9-0.4-7-1.1c-2.1-0.7-4-1.8-5.5-3.2
			c-1.5-1.4-2.7-3.2-3.6-5.2C400,150.2,399.5,147.9,399.5,145.2z M429.9,145.2c0-2.6-0.3-4.8-1-6.7c-0.7-1.9-1.6-3.4-2.7-4.7
			c-1.2-1.2-2.5-2.1-4.1-2.7c-1.6-0.6-3.3-0.9-5.1-0.9c-1.8,0-3.5,0.3-5.1,0.9c-1.6,0.6-2.9,1.5-4.1,2.7c-1.2,1.2-2.1,2.8-2.7,4.7
			c-0.7,1.9-1,4.1-1,6.7c0,2.6,0.3,4.8,1,6.7c0.7,1.9,1.6,3.4,2.7,4.7c1.2,1.2,2.5,2.1,4.1,2.7c1.6,0.6,3.3,0.9,5.1,0.9
			c1.8,0,3.5-0.3,5.1-0.9c1.6-0.6,2.9-1.5,4.1-2.7c1.2-1.2,2.1-2.8,2.7-4.7C429.6,150,429.9,147.8,429.9,145.2z"/>
		<path class="st6" d="M465.3,144.3c0-4.4,0-7.8,0-10.2c0-2.4-0.1-4-0.2-4.9c0.3,0.1,0.7,0.1,1,0.2c0.3,0,0.6,0.1,0.9,0.1
			c0.4,0,0.9-0.1,1.4-0.2c-0.1,1.1-0.2,2.4-0.3,3.9c-0.1,1.5-0.2,3.1-0.2,4.9c-0.1,1.7-0.1,3.5-0.2,5.3c-0.1,1.8-0.1,3.6-0.1,5.3
			c0,2.1-0.4,4-1,5.6c-0.6,1.7-1.5,3-2.6,4.2c-1.1,1.2-2.5,2-4.1,2.6c-1.6,0.6-3.5,0.9-5.6,0.9c-4.7,0-8.1-1.1-10.2-3.2
			c-2.1-2.1-3.2-5.5-3.2-10c0-1.5,0-2.8,0.1-3.9c0.1-1.1,0.1-2.3,0.1-3.5c0-2.6,0-4.9-0.1-7c-0.1-2-0.1-3.7-0.2-5.1
			c0.4,0.1,0.8,0.1,1.2,0.2c0.4,0,0.8,0.1,1.2,0.1c0.3,0,0.7,0,1-0.1c0.3,0,0.7-0.1,1-0.2c-0.1,0.7-0.1,1.6-0.2,2.7
			c-0.1,1.1-0.1,2.4-0.2,3.8c-0.1,1.4-0.1,2.9-0.1,4.5c0,1.6,0,3.3,0,5c0,1.1,0,2.2,0,3.3c0,1.1,0.1,2.2,0.3,3.3
			c0.2,1.1,0.5,2.1,0.9,3.1c0.4,1,1,1.8,1.8,2.6c0.8,0.7,1.8,1.3,2.9,1.7c1.2,0.4,2.6,0.6,4.4,0.6c1.7,0,3.1-0.2,4.3-0.7
			c1.2-0.5,2.1-1.2,2.9-2c0.7-0.8,1.3-1.7,1.7-2.8c0.4-1.1,0.7-2.2,0.9-3.3c0.2-1.2,0.3-2.3,0.3-3.5
			C465.3,146.3,465.3,145.2,465.3,144.3z"/>
		<path class="st6" d="M477.3,141.2c0-2.1,0-4.1-0.1-6c-0.1-2-0.2-4-0.3-6c0.7,0.1,1.5,0.1,2.3,0.2c0.8,0,1.5,0.1,2.3,0.1
			c0.4,0,0.8,0,1.4,0c0.5,0,1.1-0.1,1.6-0.1c0.5,0,1.1,0,1.6-0.1c0.5,0,0.9,0,1.3,0c0.5,0,1,0,1.7,0c0.7,0,1.4,0.1,2.2,0.3
			c0.8,0.2,1.5,0.4,2.3,0.7c0.7,0.3,1.4,0.8,2,1.4c0.6,0.6,1.1,1.3,1.5,2.2c0.4,0.9,0.6,2,0.6,3.3c0,2.1-0.4,3.7-1.3,5
			c-0.9,1.3-2,2.3-3.3,3c-1.3,0.7-2.7,1.2-4.1,1.4c-1.4,0.2-2.7,0.4-3.8,0.4c-0.7,0-1.4,0-2,0c-0.6,0-1.2-0.1-1.8-0.1v2.6
			c0,2.1,0,4.1,0.1,6.1c0.1,2,0.2,4,0.3,5.9c-0.7-0.1-1.5-0.1-2.3-0.1c-0.8,0-1.6,0-2.3,0.1c0.1-1.9,0.2-3.9,0.3-5.9
			c0.1-2,0.1-4,0.1-6.1V141.2z M481.1,144.7c1.1,0.2,2.2,0.4,3.3,0.4c1,0,2-0.1,3-0.3c1-0.2,2-0.6,2.8-1.2c0.9-0.6,1.6-1.4,2.1-2.4
			c0.5-1,0.8-2.3,0.8-3.9c0-1.3-0.2-2.4-0.6-3.3c-0.4-0.8-0.9-1.5-1.6-2c-0.7-0.5-1.5-0.8-2.5-1c-1-0.2-2.1-0.3-3.3-0.3h-4.2V144.7z
			"/>
	</g>
	<path class="st6" d="M162.9,128.5c-0.7,0-1.2-0.5-1.2-1.2V12.2c0-0.7,0.5-1.2,1.2-1.2c0.7,0,1.2,0.5,1.2,1.2v115.1
		C164.2,128,163.6,128.5,162.9,128.5"/>
	<path class="st6" d="M336.7,38.5c12.9,0,23.5,6.8,28.3,18.3l0.8,1.9h12.9l-1.4-4c-6.1-17.2-21.6-28-40.6-28
		c-24.1,0-43.7,19.7-43.7,44c0,23.9,19.6,43.4,43.7,43.4c19.1,0,34.7-10.7,40.6-28l1.4-4h-12.7l-0.8,2
		c-4.5,11.5-15.1,18.4-28.4,18.4c-17.4,0-31.5-14.2-31.5-31.7C305.2,53,319.3,38.5,336.7,38.5"/>
	<rect x="397.1" y="28.7" class="st6" width="12.2" height="83.6"/>
	<path class="st6" d="M262.3,86.9c-5,9.8-15,15.6-27.1,15.6c-16.4,0-29.9-12.6-31.4-28.7H279l0-2.7c0-3.1-0.4-6.2-1-9.1
		c-0.3-1.9-2.2-7.3-2.2-7.3c-6.1-17.2-21.6-28-40.6-28c-22,0-40.1,16.4-43.2,37.6c-0.1,0.3-0.1,0.6-0.1,0.9c-0.1,0.7-0.1,1.3-0.2,2
		c-0.1,1-0.1,2-0.2,3c0,0.2,0,0.4,0,0.6c0,0,0,0.1,0,0.1c0,1,0,2,0.1,3h0c1.6,22.5,20.5,40.3,43.6,40.3c16.7,0,30.6-8.1,37.8-21.7
		c0.9-1.7,1.7-3.6,2.4-5.5H262.3 M235.2,38.5c12.9,0,23.5,6.8,28.3,18.3c0,0,1.2,3.1,1.5,5.3l-60.2,0c0,0,0,0,0-0.1h0
		C208.6,48.5,220.8,38.5,235.2,38.5z"/>
	<polyline class="st6" points="497.5,28.7 482.8,28.7 462.5,59.3 442.2,28.7 427.4,28.7 455.1,70.5 427.4,112.3 442.2,112.3 
		462.5,81.6 482.8,112.3 497.5,112.3 469.8,70.5 497.5,28.7 	"/>
	<g>
		<path class="st6" d="M45.2,65c0,0,0-0.1,0-0.1h0V65"/>
		<path class="st6" d="M52.6,51.4c2.1-1.8,4.5-3.1,6.9-4.1c2.5-0.9,5.2-1.4,8.2-1.4c2.9,0,5.5,0.4,8,1.3c2.5,0.9,4.7,2.2,6.7,4
			c2,1.8,3.6,3.8,4.8,6.1c1,2,1.7,4.1,2.1,6.4l9.4-9.4c-1.5-3-3.3-5.9-5.6-8.4c-3.2-3.5-6.9-6.1-11.1-7.9c-4.2-1.8-8.9-2.7-14.1-2.7
			c-5.2,0-9.8,0.8-13.9,2.5c-4.1,1.7-7.8,4.1-11,7.4c-3.1,3.2-5.5,7-7.1,11.2c-1.6,4.3-2.3,9.1-2.3,14.4c0,2.2,0.2,4.4,0.5,6.5
			c0.4,2.1,1,4.2,1.7,6.3c0.8,2,1.7,3.9,2.8,5.7c1.1,1.8,2.3,3.4,3.7,5c1.7,1.8,3.5,3.4,5.5,4.7c1.2,0.9,2.5,1.6,3.9,2.3l8-8
			c-2.7-1-5.1-2.3-7.2-4.1c-2.1-2-3.8-4.1-5-6.6c-1.2-2.5-2-5.3-2.2-8.4h33.6l9.5-9.5h-43c0,0,0,0.1,0,0.1v-0.1l0,0
			c0.4-2.7,1.2-5.1,2.4-7.4C48.8,55.2,50.5,53.2,52.6,51.4z"/>
		<path class="st6" d="M100.3,58.1c-0.2-0.7-0.5-1.4-0.8-2l-8.1,8.1l-1,1l-9.2,9.2h21.4v-0.7C102.6,67.9,101.9,62.7,100.3,58.1z"/>
		<path class="st6" d="M45.2,65c0,0,0-0.1,0-0.1h0V65z"/>
		<path class="st6" d="M68,12.2c-19.7,0-38.1,10.4-48.3,27.3l8.2,8.3C35.7,33,51.2,23.5,68,23.5c15.7,0,30.3,8.2,38.5,21.6l8.1-8.2
			C104.1,21.5,86.7,12.2,68,12.2z"/>
		<path class="st6" d="M67.9,3.2C31.8,3.2,2.5,32.5,2.5,68.6c0,36.1,29.3,65.3,65.3,65.3c36.1,0,65.4-29.3,65.4-65.3
			C133.3,32.5,104,3.2,67.9,3.2z M67.9,118.8c-27.7,0-50.2-22.5-50.2-50.2c0-8.2,2-15.9,5.5-22.8l-6-6l0.4-0.7
			C28,21.3,47.3,10.2,67.9,10.2c19.7,0,37.9,9.8,48.7,26.2l0.4,0.7l-5.9,6c4.4,7.5,6.9,16.2,6.9,25.5
			C118.2,96.3,95.7,118.8,67.9,118.8z"/>
	</g>
</g>
</svg>
