<?xml version="1.0" encoding="utf-8"?>
<!-- Generator: Adobe Illustrator 22.1.0, SVG Export Plug-In . SVG Version: 6.00 Build 0)  -->
<svg version="1.1" id="Capa_1" xmlns="http://www.w3.org/2000/svg" xmlns:xlink="http://www.w3.org/1999/xlink" x="0px" y="0px"
	 viewBox="0 0 800 800" style="enable-background:new 0 0 800 800;" xml:space="preserve">
<style type="text/css">
	.st0{fill:#FFFFFF;}
</style>
<g>
	<path class="st0" d="M262.1,378.3c0-0.2,0-0.5,0.2-0.7h-0.2V378.3"/>
	<path class="st0" d="M307,295.6c12.8-10.9,27.1-19,42-24.7c15.2-5.7,31.8-8.6,49.6-8.6c17.6,0,33.7,2.6,48.7,8.1
		s28.5,13.5,40.9,24.5c12.4,10.7,22.1,23,29.2,37.1c6.2,12.1,10.5,25.2,12.8,39.2l57-57c-9-18.5-20.2-35.6-34.2-50.8
		c-19.5-21.1-42-37.1-67.7-47.7c-25.4-10.9-54.2-16.2-86-16.2c-31.4,0-59.6,5-84.6,15c-24.9,10.2-47.3,25.2-66.7,45.1
		c-19,19.5-33.3,42.3-43,68.4c-9.5,25.9-14.3,55.1-14.3,87.6c0,13.5,1.2,26.6,3.3,39.4c2.4,12.8,5.9,25.7,10.5,38.5
		c4.8,12.4,10.2,24,17.1,34.9c6.7,10.7,14,20.9,22.3,30.2c10.2,10.9,21.4,20.4,33.3,28.7c7.4,5.2,15.4,9.5,23.5,13.8l48.9-48.9
		c-16.4-5.9-30.9-14.3-43.9-25.2c-12.8-11.9-23-25.2-30.6-40.1c-7.6-15-11.9-32.1-13.5-51.1h204l58-58H262.4c0,0.2,0,0.5,0,0.7v-0.7
		l0,0c2.6-16.2,7.4-31.1,14.5-44.9C284,318.6,293.9,306.3,307,295.6z"/>
	<path class="st0" d="M597,336.5c-1.4-4.3-3.1-8.3-4.8-12.4l-49.4,49.4l-6.2,6.2l-55.8,55.8h130.4V431
		C611.3,395.6,606.5,364.3,597,336.5z"/>
	<path class="st0" d="M262.1,378c0-0.2,0-0.5,0.2-0.7h-0.2V378z"/>
	<path class="st0" d="M400.4,57.4c-119.7,0-231.8,63.4-293.6,165.8l50.1,50.6c47-90,141.6-147.7,243.5-147.7
		c95.5,0,184.3,50.1,234,131.4l49.4-49.9C619.8,113.4,514.1,57.4,400.4,57.4z"/>
	<path class="st0" d="M399.9,2.5C180.4,2.5,2.5,180.4,2.5,400.1c0,219.5,177.9,397.4,397.4,397.4s397.6-177.9,397.6-397.4
		C797.5,180.4,619.6,2.5,399.9,2.5z M399.9,705.6c-168.6,0-305.5-136.8-305.5-305.5c0-49.9,12.1-96.9,33.3-138.5L91.4,225l2.4-4
		c63.7-108.3,181-175.8,306.4-175.8c119.7,0,230.4,59.6,296.4,159.6l2.6,4l-36.1,36.3c26.8,45.4,42,98.3,42,154.9
		C705.6,568.8,568.8,705.6,399.9,705.6z"/>
</g>
</svg>
