<?xml version="1.0" encoding="utf-8"?>
<!-- Generator: Adobe Illustrator 22.1.0, SVG Export Plug-In . SVG Version: 6.00 Build 0)  -->
<svg version="1.1" xmlns="http://www.w3.org/2000/svg" xmlns:xlink="http://www.w3.org/1999/xlink" x="0px" y="0px"
	 viewBox="0 0 500 165" style="enable-background:new 0 0 500 165;" xml:space="preserve">
<style type="text/css">
	.st0{display:none;}
	.st1{display:inline;fill:#292A29;}
	.st2{display:inline;fill:#63A6D9;}
	.st3{fill:#292A29;}
	.st4{fill:#21357D;}
	.st5{fill:#99A2AC;}
	.st6{fill:#FFFFFF;}
	.st7{fill:#1DA5DD;}
	.st8{fill:#62A5D8;}
	.st9{fill:#302E2B;}
	.st10{fill:#003383;}
	.st11{opacity:0.5;fill:#FFFFFF;}
</style>
<g id="BG" class="st0">
	<rect x="0.7" y="219.2" class="st1" width="498.7" height="170.7"/>
	<rect x="0.7" y="440.5" class="st2" width="498.7" height="170.7"/>
</g>
<g id="Capa_1">
	<g>
		<g>
			<path class="st3" d="M362.4,133.2c-0.7-0.6-1.5-1-2.3-1.5c-0.9-0.4-1.8-0.8-2.9-1c-1-0.3-2.2-0.4-3.3-0.4c-1.9,0-3.7,0.3-5.4,0.9
				c-1.7,0.6-3.1,1.5-4.3,2.7c-1.2,1.2-2.2,2.8-2.9,4.7c-0.7,1.9-1,4.1-1,6.7c0,2.3,0.3,4.3,0.9,6.2c0.6,1.8,1.5,3.4,2.7,4.6
				c1.2,1.3,2.7,2.2,4.4,2.9c1.7,0.7,3.7,1,5.9,1c0.7,0,1.3,0,2.1-0.1c0.7-0.1,1.4-0.2,2.1-0.3c0.7-0.1,1.3-0.3,1.9-0.5
				c0.6-0.2,1.1-0.4,1.5-0.7c0-0.9,0.1-1.9,0.1-2.8c0-0.9,0-1.9,0-2.9c0-1.1,0-2.2-0.1-3.3c0-1.1-0.1-2.1-0.2-3.1
				c0.8,0.2,1.5,0.2,2.2,0.2c0.3,0,0.7,0,1,0c0.3,0,0.7-0.1,1-0.2c-0.1,0.7-0.1,1.8-0.1,3.4c0,1.5,0,3.6,0,6.1c0,0.6,0,1.3,0,1.9
				c0,0.6,0,1.3,0,1.9c-0.7,0.2-1.5,0.5-2.5,0.8c-1,0.3-2,0.5-3.1,0.7c-1.1,0.2-2.2,0.3-3.3,0.5c-1.1,0.1-2.1,0.2-3,0.2
				c-2.8,0-5.3-0.3-7.5-1c-2.2-0.7-4.1-1.7-5.7-3.1c-1.6-1.4-2.8-3.1-3.6-5.2c-0.8-2.1-1.3-4.5-1.3-7.2c0-2.6,0.4-5,1.3-7.1
				c0.9-2.1,2.1-3.8,3.7-5.3c1.6-1.4,3.5-2.5,5.8-3.3c2.3-0.7,4.8-1.1,7.5-1.1c1.6,0,3,0.1,4.2,0.3c1.2,0.2,2.3,0.4,3.3,0.7
				c0.9,0.3,1.8,0.6,2.5,0.9c0.7,0.3,1.4,0.6,1.9,0.9c-0.2,0.4-0.5,1-0.7,1.7c-0.2,0.7-0.3,1.3-0.4,1.9h-0.6
				C363.7,134.3,363.1,133.7,362.4,133.2z"/>
			<path class="st3" d="M373.7,141.2c0-2.1,0-4.1-0.1-6c-0.1-2-0.2-4-0.3-6c0.9,0.1,1.8,0.1,2.7,0.2c0.9,0,1.8,0.1,2.7,0.1
				c0.9,0,1.8,0,2.7-0.1c0.9-0.1,1.8-0.1,2.7-0.1c1.3,0,2.6,0.1,3.7,0.4c1.2,0.2,2.2,0.7,3.1,1.2c0.9,0.6,1.6,1.3,2.1,2.3
				c0.5,0.9,0.8,2.1,0.8,3.5c0,1.5-0.3,2.8-1,3.9c-0.7,1.1-1.5,2-2.5,2.7c-1,0.7-2,1.2-3.1,1.6c-1.1,0.4-2.1,0.6-3,0.8
				c0.4,0.5,0.9,1.1,1.5,2c0.7,0.8,1.4,1.8,2.2,2.8c0.8,1,1.6,2.1,2.5,3.2c0.9,1.1,1.7,2.2,2.5,3.2c0.8,1,1.6,1.9,2.3,2.8
				c0.7,0.8,1.3,1.5,1.7,1.9c-0.5-0.1-0.9-0.1-1.4-0.1c-0.5,0-0.9,0-1.4,0c-0.4,0-0.9,0-1.4,0c-0.5,0-0.9,0-1.4,0.1
				c-0.5-0.7-1.2-1.6-2.1-2.9c-1-1.3-2-2.7-3.2-4.2c-1.2-1.5-2.3-3-3.5-4.5c-1.2-1.5-2.3-2.7-3.3-3.8h-1.8v3.4c0,2.1,0,4.1,0.1,6.1
				c0.1,2,0.2,4,0.3,5.9c-0.7-0.1-1.5-0.1-2.3-0.1c-0.8,0-1.6,0-2.3,0.1c0.1-1.9,0.2-3.9,0.3-5.9c0.1-2,0.1-4,0.1-6.1V141.2z
				 M377.6,143.9c0.4,0.1,0.9,0.2,1.4,0.2c0.5,0,1.1,0,1.7,0c1,0,2-0.1,3-0.3c1-0.2,2-0.6,2.9-1.1c0.9-0.5,1.6-1.3,2.2-2.2
				c0.6-0.9,0.9-2.1,0.9-3.5c0-1.2-0.2-2.2-0.7-3c-0.5-0.8-1-1.4-1.8-1.9c-0.7-0.5-1.5-0.8-2.3-1c-0.8-0.2-1.7-0.3-2.5-0.3
				c-1.1,0-2,0-2.7,0.1c-0.7,0-1.3,0.1-1.8,0.2c-0.1,1.7-0.1,3.4-0.2,5.1c-0.1,1.7-0.1,3.4-0.1,5V143.9z"/>
			<path class="st3" d="M399.7,145.3c0-2.6,0.4-5,1.3-7.1c0.9-2.1,2.1-3.8,3.6-5.3c1.5-1.4,3.4-2.5,5.5-3.3c2.1-0.7,4.5-1.1,7.1-1.1
				c2.6,0,5,0.4,7.1,1.1c2.1,0.7,4,1.8,5.5,3.3c1.5,1.4,2.7,3.2,3.6,5.3c0.9,2.1,1.3,4.4,1.3,7.1c0,2.6-0.4,5-1.3,7.1
				c-0.9,2.1-2.1,3.8-3.6,5.3c-1.5,1.4-3.4,2.5-5.5,3.2c-2.1,0.7-4.5,1.1-7.1,1.1c-2.6,0-4.9-0.4-7.1-1.1c-2.1-0.7-4-1.8-5.5-3.2
				c-1.5-1.4-2.7-3.2-3.6-5.3C400.1,150.3,399.7,147.9,399.7,145.3z M430.1,145.3c0-2.6-0.3-4.8-1-6.7c-0.7-1.9-1.6-3.4-2.7-4.7
				c-1.2-1.2-2.5-2.1-4.1-2.7c-1.6-0.6-3.3-0.9-5.1-0.9c-1.8,0-3.5,0.3-5.1,0.9c-1.6,0.6-2.9,1.5-4.1,2.7c-1.2,1.2-2.1,2.8-2.7,4.7
				c-0.7,1.9-1,4.1-1,6.7c0,2.6,0.3,4.8,1,6.7c0.7,1.9,1.6,3.4,2.7,4.7c1.2,1.2,2.5,2.1,4.1,2.7c1.6,0.6,3.3,0.9,5.1,0.9
				c1.8,0,3.5-0.3,5.1-0.9c1.6-0.6,2.9-1.5,4.1-2.7c1.2-1.2,2.1-2.8,2.7-4.7S430.1,147.8,430.1,145.3z"/>
			<path class="st3" d="M465.5,144.3c0-4.4,0-7.8,0-10.2c0-2.4-0.1-4-0.2-5c0.3,0.1,0.7,0.1,1,0.2c0.3,0,0.6,0.1,0.9,0.1
				c0.4,0,0.9-0.1,1.4-0.2c-0.1,1.1-0.2,2.4-0.3,3.9c-0.1,1.5-0.2,3.1-0.2,4.9s-0.1,3.5-0.2,5.3c-0.1,1.8-0.1,3.6-0.1,5.3
				c0,2.1-0.4,4-1,5.6c-0.6,1.7-1.5,3.1-2.6,4.2c-1.1,1.2-2.5,2-4.1,2.6c-1.6,0.6-3.5,0.9-5.6,0.9c-4.7,0-8.1-1.1-10.2-3.2
				c-2.1-2.1-3.2-5.5-3.2-10c0-1.5,0-2.8,0.1-3.9c0.1-1.1,0.1-2.3,0.1-3.5c0-2.6,0-4.9-0.1-7c-0.1-2-0.1-3.7-0.2-5.1
				c0.4,0.1,0.8,0.1,1.2,0.2c0.4,0,0.8,0.1,1.2,0.1c0.3,0,0.7,0,1-0.1c0.3,0,0.7-0.1,1-0.2c-0.1,0.7-0.1,1.6-0.2,2.7
				c-0.1,1.1-0.1,2.4-0.2,3.8c-0.1,1.4-0.1,2.9-0.1,4.5c0,1.6,0,3.3,0,5c0,1.1,0,2.2,0,3.3c0,1.1,0.1,2.2,0.3,3.3
				c0.2,1.1,0.5,2.1,0.9,3.1c0.4,1,1,1.8,1.8,2.6c0.8,0.7,1.8,1.3,2.9,1.7c1.2,0.4,2.6,0.6,4.4,0.6c1.7,0,3.2-0.2,4.3-0.7
				c1.2-0.5,2.1-1.2,2.9-2c0.7-0.8,1.3-1.7,1.8-2.8c0.4-1.1,0.7-2.2,0.9-3.3c0.2-1.2,0.3-2.3,0.3-3.5
				C465.5,146.4,465.5,145.3,465.5,144.3z"/>
			<path class="st3" d="M477.5,141.2c0-2.1,0-4.1-0.1-6c-0.1-2-0.2-4-0.3-6c0.7,0.1,1.5,0.1,2.3,0.2c0.8,0,1.5,0.1,2.3,0.1
				c0.4,0,0.8,0,1.4,0c0.5,0,1.1-0.1,1.6-0.1c0.5,0,1.1,0,1.6-0.1c0.5,0,0.9,0,1.3,0c0.5,0,1,0,1.7,0c0.7,0,1.4,0.1,2.2,0.3
				c0.8,0.2,1.5,0.4,2.3,0.7c0.7,0.3,1.4,0.8,2,1.4c0.6,0.6,1.1,1.3,1.5,2.2c0.4,0.9,0.6,2,0.6,3.3c0,2.1-0.4,3.7-1.3,5
				c-0.9,1.3-2,2.3-3.3,3c-1.3,0.7-2.7,1.2-4.1,1.4c-1.4,0.2-2.7,0.4-3.9,0.4c-0.7,0-1.4,0-2,0c-0.6,0-1.2-0.1-1.8-0.1v2.6
				c0,2.1,0,4.1,0.1,6.1c0.1,2,0.2,4,0.3,5.9c-0.7-0.1-1.5-0.1-2.3-0.1c-0.8,0-1.6,0-2.3,0.1c0.1-1.9,0.2-3.9,0.3-5.9
				c0.1-2,0.1-4,0.1-6.1V141.2z M481.3,144.8c1.1,0.2,2.2,0.4,3.3,0.4c1,0,2-0.1,3-0.3c1-0.2,2-0.6,2.8-1.2c0.9-0.6,1.6-1.4,2.1-2.4
				c0.5-1,0.8-2.3,0.8-3.9c0-1.3-0.2-2.4-0.6-3.3c-0.4-0.8-0.9-1.5-1.6-2c-0.7-0.5-1.5-0.8-2.5-1c-1-0.2-2.1-0.3-3.3-0.3h-4.2V144.8
				z"/>
		</g>
		<g>
			<path class="st3" d="M162.8,128.5c-0.7,0-1.2-0.5-1.2-1.2V12.1c0-0.7,0.5-1.2,1.2-1.2c0.7,0,1.2,0.5,1.2,1.2v115.2
				C164.1,128,163.5,128.5,162.8,128.5"/>
			<path class="st3" d="M336.8,38.5c12.9,0,23.5,6.8,28.3,18.3l0.8,1.9h12.9l-1.4-4c-6.1-17.3-21.6-28-40.6-28
				c-24.1,0-43.8,19.7-43.8,44c0,23.9,19.6,43.4,43.8,43.4c19.1,0,34.7-10.7,40.6-28l1.4-4H366l-0.8,2
				c-4.5,11.5-15.1,18.4-28.5,18.4c-17.4,0-31.6-14.3-31.6-31.8C305.2,52.9,319.4,38.5,336.8,38.5"/>
			<rect x="397.2" y="28.7" class="st3" width="12.2" height="83.6"/>
			<path class="st3" d="M262.3,86.9c-5,9.8-15,15.6-27.2,15.6c-16.4,0-29.9-12.6-31.4-28.7H279l0-2.7c0-3.1-0.4-6.2-1-9.1
				c-0.3-1.9-2.2-7.3-2.2-7.3c-6.1-17.3-21.6-28-40.6-28c-22,0-40.2,16.4-43.2,37.6c-0.1,0.3-0.1,0.6-0.1,0.9
				c-0.1,0.7-0.2,1.3-0.2,2c-0.1,1-0.1,2-0.2,3c0,0.2,0,0.4,0,0.6c0,0,0,0.1,0,0.1c0,1,0,2,0.1,3h0c1.6,22.5,20.5,40.3,43.6,40.3
				c16.7,0,30.6-8.1,37.9-21.7c0.9-1.7,1.7-3.6,2.4-5.5H262.3 M235.1,38.5c12.9,0,23.5,6.8,28.3,18.3c0,0,1.2,3.1,1.5,5.3l-60.2,0
				c0,0,0,0,0-0.1h0C208.5,48.4,220.7,38.5,235.1,38.5z"/>
			<polyline class="st4" points="497.7,28.7 482.9,28.7 462.6,59.3 442.3,28.7 427.5,28.7 455.2,70.5 427.5,112.3 442.3,112.3 
				462.6,81.6 482.9,112.3 497.7,112.3 470,70.5 497.7,28.7 			"/>
			<path class="st5" d="M98.6,54.4l-9.4,9.4c0.1,0.4,0.1,0.7,0.2,1h-1.2l-9.5,9.5h23.9v-0.8c0-5.8-0.8-10.9-2.4-15.5
				C99.7,56.9,99.2,55.6,98.6,54.4"/>
			<path class="st6" d="M124.4,68.6c0,31.3-25.4,56.6-56.6,56.6c-31.3,0-56.6-25.3-56.6-56.6C11.1,37.3,36.5,12,67.7,12
				C99,12,124.4,37.3,124.4,68.6z"/>
			<path class="st7" d="M67.7,3.2C31.6,3.2,2.3,32.5,2.3,68.6c0,36.1,29.3,65.4,65.4,65.4c36.1,0,65.4-29.3,65.4-65.4
				C133.2,32.5,103.9,3.2,67.7,3.2z M67.7,118.9c-27.8,0-50.3-22.5-50.3-50.3c0-27.8,22.5-50.3,50.3-50.3
				c27.8,0,50.3,22.5,50.3,50.3C118,96.4,95.5,118.9,67.7,118.9z"/>
			<path class="st3" d="M52.4,51.4c2.1-1.8,4.4-3.1,6.9-4.1c2.5-0.9,5.2-1.4,8.2-1.4c2.9,0,5.5,0.4,8,1.3c2.4,0.9,4.7,2.2,6.7,4
				c2,1.8,3.6,3.8,4.8,6.1c1,2,1.7,4.1,2.1,6.4l9.4-9.4c-1.5-3.1-3.3-5.9-5.6-8.4c-3.2-3.5-6.9-6.1-11.1-7.9
				c-4.2-1.8-8.9-2.7-14.2-2.7c-5.2,0-9.8,0.8-13.9,2.5c-4.1,1.7-7.8,4.1-11,7.4c-3.1,3.2-5.5,7-7.1,11.2c-1.6,4.3-2.3,9.1-2.3,14.4
				c0,2.2,0.2,4.4,0.6,6.5c0.4,2.1,1,4.2,1.7,6.3c0.8,2,1.7,3.9,2.8,5.7c1.1,1.8,2.3,3.4,3.7,4.9c1.7,1.8,3.5,3.3,5.4,4.7
				c1.2,0.8,2.5,1.6,3.9,2.3l8-8c-2.7-1-5.1-2.3-7.2-4.1c-2.1-2-3.8-4.1-5-6.6c-1.2-2.5-2-5.3-2.2-8.4h33.6l9.5-9.5H45.1
				c0,0,0,0.1,0,0.1v-0.1h0c0.4-2.7,1.2-5.1,2.4-7.4C48.6,55.2,50.3,53.2,52.4,51.4z"/>
			<path class="st5" d="M98.6,54.4l-9.4,9.4c0.1,0.3,0.1,0.7,0.2,1h-1.2l-9.5,9.5h23.8v-0.8c0-5.8-0.8-10.9-2.4-15.5
				C99.6,56.8,99.1,55.6,98.6,54.4z"/>
			<path class="st4" d="M67.7,24.3c16.4,0,30.8,8.9,38.4,22.2l9.6-9.7c-10.3-15.6-28-25.8-48-25.8c-20.1,0-37.7,10.3-48,25.8
				l9.6,9.7C37,33.3,51.3,24.3,67.7,24.3z"/>
		</g>
	</g>
	<g>
		<g>
			<path class="st6" d="M362.3,355.1c-0.7-0.6-1.5-1-2.3-1.5c-0.9-0.4-1.8-0.8-2.8-1c-1-0.3-2.2-0.4-3.3-0.4c-1.9,0-3.7,0.3-5.4,0.9
				c-1.7,0.6-3.1,1.5-4.3,2.7c-1.2,1.2-2.2,2.8-2.9,4.7c-0.7,1.9-1,4.1-1,6.7c0,2.3,0.3,4.3,0.9,6.2c0.6,1.8,1.5,3.4,2.7,4.6
				c1.2,1.3,2.7,2.2,4.4,2.9c1.7,0.7,3.7,1,5.9,1c0.7,0,1.3,0,2.1-0.1c0.7-0.1,1.4-0.2,2.1-0.3c0.7-0.1,1.3-0.3,1.9-0.5
				c0.6-0.2,1.1-0.4,1.5-0.7c0-0.9,0.1-1.9,0.1-2.8c0-0.9,0-1.9,0-2.8c0-1.1,0-2.2-0.1-3.3s-0.1-2.1-0.2-3.1
				c0.8,0.2,1.5,0.2,2.2,0.2c0.3,0,0.7,0,1,0c0.3,0,0.7-0.1,1-0.2c-0.1,0.7-0.1,1.8-0.1,3.4c0,1.5,0,3.6,0,6.1c0,0.6,0,1.3,0,1.9
				c0,0.6,0,1.3,0,1.9c-0.7,0.2-1.5,0.5-2.5,0.8c-1,0.3-2,0.5-3.1,0.7c-1.1,0.2-2.2,0.3-3.3,0.5c-1.1,0.1-2.1,0.2-3,0.2
				c-2.8,0-5.3-0.3-7.5-1c-2.2-0.7-4.1-1.7-5.7-3.1c-1.6-1.4-2.8-3.1-3.6-5.2c-0.8-2.1-1.3-4.5-1.3-7.2c0-2.6,0.4-5,1.3-7.1
				c0.9-2.1,2.1-3.8,3.7-5.2c1.6-1.4,3.5-2.5,5.8-3.3c2.3-0.7,4.8-1.1,7.5-1.1c1.6,0,3,0.1,4.2,0.3c1.2,0.2,2.3,0.4,3.3,0.7
				c0.9,0.3,1.8,0.6,2.5,0.9c0.7,0.3,1.4,0.6,1.9,0.9c-0.2,0.4-0.5,1-0.7,1.7c-0.2,0.7-0.3,1.3-0.4,1.9h-0.6
				C363.6,356.2,363,355.7,362.3,355.1z"/>
			<path class="st6" d="M373.7,363.2c0-2.1,0-4.1-0.1-6c-0.1-2-0.2-4-0.3-6c0.9,0.1,1.8,0.1,2.7,0.2c0.9,0,1.8,0.1,2.7,0.1
				c0.9,0,1.8,0,2.7-0.1c0.9-0.1,1.8-0.1,2.7-0.1c1.3,0,2.6,0.1,3.7,0.4c1.2,0.2,2.2,0.7,3.1,1.2c0.9,0.6,1.6,1.3,2.1,2.3
				c0.5,0.9,0.8,2.1,0.8,3.5c0,1.5-0.3,2.8-1,3.9c-0.7,1.1-1.5,2-2.4,2.7c-1,0.7-2,1.2-3.1,1.6c-1.1,0.4-2.1,0.6-3,0.8
				c0.4,0.5,0.9,1.1,1.5,2c0.7,0.8,1.4,1.8,2.2,2.8c0.8,1,1.6,2.1,2.5,3.2c0.9,1.1,1.7,2.2,2.5,3.2c0.8,1,1.6,1.9,2.3,2.8
				c0.7,0.8,1.3,1.5,1.7,1.9c-0.5-0.1-0.9-0.1-1.4-0.1c-0.5,0-0.9,0-1.4,0c-0.4,0-0.9,0-1.4,0c-0.5,0-0.9,0-1.4,0.1
				c-0.5-0.7-1.2-1.6-2.1-2.9c-1-1.3-2-2.7-3.2-4.2c-1.2-1.5-2.3-3-3.5-4.5c-1.2-1.5-2.3-2.7-3.3-3.8h-1.8v3.4c0,2.1,0,4.1,0.1,6.1
				c0.1,2,0.2,4,0.3,5.9c-0.7-0.1-1.5-0.1-2.3-0.1c-0.8,0-1.6,0-2.3,0.1c0.1-1.9,0.2-3.9,0.3-5.9c0.1-2,0.1-4,0.1-6.1V363.2z
				 M377.5,365.9c0.4,0.1,0.9,0.2,1.4,0.2c0.5,0,1.1,0,1.7,0c1,0,2-0.1,3-0.3c1-0.2,2-0.6,2.9-1.1c0.9-0.5,1.6-1.3,2.2-2.2
				c0.6-0.9,0.9-2.1,0.9-3.5c0-1.2-0.2-2.2-0.7-3c-0.5-0.8-1-1.4-1.8-1.9c-0.7-0.5-1.5-0.8-2.3-1c-0.8-0.2-1.7-0.3-2.5-0.3
				c-1.1,0-2,0-2.7,0.1c-0.7,0-1.3,0.1-1.8,0.2c-0.1,1.7-0.1,3.4-0.2,5.1c-0.1,1.7-0.1,3.4-0.1,5V365.9z"/>
			<path class="st6" d="M399.5,367.2c0-2.6,0.4-5,1.3-7.1c0.9-2.1,2.1-3.8,3.6-5.2c1.5-1.4,3.4-2.5,5.5-3.3c2.1-0.7,4.5-1.1,7-1.1
				c2.6,0,4.9,0.4,7.1,1.1c2.1,0.7,4,1.8,5.5,3.3c1.5,1.4,2.7,3.2,3.6,5.2c0.9,2.1,1.3,4.4,1.3,7.1c0,2.6-0.4,5-1.3,7.1
				c-0.9,2.1-2.1,3.8-3.6,5.2c-1.5,1.4-3.4,2.5-5.5,3.2c-2.1,0.7-4.5,1.1-7.1,1.1c-2.5,0-4.9-0.4-7-1.1c-2.1-0.7-4-1.8-5.5-3.2
				c-1.5-1.4-2.7-3.2-3.6-5.2C400,372.2,399.5,369.9,399.5,367.2z M429.9,367.2c0-2.6-0.3-4.8-1-6.7c-0.7-1.9-1.6-3.4-2.7-4.7
				c-1.2-1.2-2.5-2.1-4.1-2.7c-1.6-0.6-3.3-0.9-5.1-0.9c-1.8,0-3.5,0.3-5.1,0.9c-1.6,0.6-2.9,1.5-4.1,2.7c-1.2,1.2-2.1,2.8-2.7,4.7
				c-0.7,1.9-1,4.1-1,6.7c0,2.6,0.3,4.8,1,6.7c0.7,1.9,1.6,3.4,2.7,4.7c1.2,1.2,2.5,2.1,4.1,2.7c1.6,0.6,3.3,0.9,5.1,0.9
				c1.8,0,3.5-0.3,5.1-0.9c1.6-0.6,2.9-1.5,4.1-2.7c1.2-1.2,2.1-2.8,2.7-4.7C429.6,372,429.9,369.8,429.9,367.2z"/>
			<path class="st6" d="M465.3,366.3c0-4.4,0-7.8,0-10.2c0-2.4-0.1-4-0.2-4.9c0.3,0.1,0.7,0.1,1,0.2c0.3,0,0.6,0.1,0.9,0.1
				c0.4,0,0.9-0.1,1.4-0.2c-0.1,1.1-0.2,2.4-0.3,3.9c-0.1,1.5-0.2,3.1-0.2,4.9c-0.1,1.7-0.1,3.5-0.2,5.3c-0.1,1.8-0.1,3.6-0.1,5.3
				c0,2.1-0.4,4-1,5.6c-0.6,1.7-1.5,3-2.6,4.2c-1.1,1.2-2.5,2-4.1,2.6c-1.6,0.6-3.5,0.9-5.6,0.9c-4.7,0-8.1-1.1-10.2-3.2
				c-2.1-2.1-3.2-5.5-3.2-10c0-1.5,0-2.8,0.1-3.9c0.1-1.1,0.1-2.3,0.1-3.5c0-2.6,0-4.9-0.1-7c-0.1-2-0.1-3.7-0.2-5.1
				c0.4,0.1,0.8,0.1,1.2,0.2c0.4,0,0.8,0.1,1.2,0.1c0.3,0,0.7,0,1-0.1c0.3,0,0.7-0.1,1-0.2c-0.1,0.7-0.1,1.6-0.2,2.7
				c-0.1,1.1-0.1,2.4-0.2,3.8c-0.1,1.4-0.1,2.9-0.1,4.5c0,1.6,0,3.3,0,5c0,1.1,0,2.2,0,3.3c0,1.1,0.1,2.2,0.3,3.3
				c0.2,1.1,0.5,2.1,0.9,3.1c0.4,1,1,1.8,1.8,2.6c0.8,0.7,1.8,1.3,2.9,1.7c1.2,0.4,2.6,0.6,4.4,0.6c1.7,0,3.1-0.2,4.3-0.7
				c1.2-0.5,2.1-1.2,2.9-2c0.7-0.8,1.3-1.7,1.7-2.8c0.4-1.1,0.7-2.2,0.9-3.3c0.2-1.2,0.3-2.3,0.3-3.5
				C465.3,368.3,465.3,367.2,465.3,366.3z"/>
			<path class="st6" d="M477.3,363.2c0-2.1,0-4.1-0.1-6c-0.1-2-0.2-4-0.3-6c0.7,0.1,1.5,0.1,2.3,0.2c0.8,0,1.5,0.1,2.3,0.1
				c0.4,0,0.8,0,1.4,0c0.5,0,1.1-0.1,1.6-0.1c0.5,0,1.1,0,1.6-0.1c0.5,0,0.9,0,1.3,0c0.5,0,1,0,1.7,0c0.7,0,1.4,0.1,2.2,0.3
				c0.8,0.2,1.5,0.4,2.3,0.7c0.7,0.3,1.4,0.8,2,1.4c0.6,0.6,1.1,1.3,1.5,2.2c0.4,0.9,0.6,2,0.6,3.3c0,2.1-0.4,3.7-1.3,5
				c-0.9,1.3-2,2.3-3.3,3c-1.3,0.7-2.7,1.2-4.1,1.4c-1.4,0.2-2.7,0.4-3.8,0.4c-0.7,0-1.4,0-2,0c-0.6,0-1.2-0.1-1.8-0.1v2.6
				c0,2.1,0,4.1,0.1,6.1c0.1,2,0.2,4,0.3,5.9c-0.7-0.1-1.5-0.1-2.3-0.1c-0.8,0-1.6,0-2.3,0.1c0.1-1.9,0.2-3.9,0.3-5.9
				c0.1-2,0.1-4,0.1-6.1V363.2z M481.2,366.7c1.1,0.2,2.2,0.4,3.3,0.4c1,0,2-0.1,3-0.3c1-0.2,2-0.6,2.8-1.2c0.9-0.6,1.6-1.4,2.1-2.4
				c0.5-1,0.8-2.3,0.8-3.9c0-1.3-0.2-2.4-0.6-3.3c-0.4-0.8-0.9-1.5-1.6-2c-0.7-0.5-1.5-0.8-2.5-1c-1-0.2-2.1-0.3-3.3-0.3h-4.2V366.7
				z"/>
		</g>
		<g>
			<path class="st6" d="M162.9,350.5c-0.7,0-1.2-0.5-1.2-1.2V234.2c0-0.7,0.5-1.2,1.2-1.2c0.7,0,1.2,0.5,1.2,1.2v115.1
				C164.1,350,163.6,350.5,162.9,350.5"/>
			<path class="st6" d="M336.7,260.5c12.9,0,23.5,6.8,28.3,18.3l0.8,1.9h12.9l-1.4-4c-6.1-17.2-21.6-28-40.6-28
				c-24.1,0-43.7,19.7-43.7,44c0,23.9,19.6,43.4,43.7,43.4c19.1,0,34.7-10.7,40.6-28l1.4-4h-12.7l-0.8,2
				c-4.5,11.5-15.1,18.4-28.4,18.4c-17.4,0-31.5-14.2-31.5-31.7C305.2,275,319.3,260.5,336.7,260.5"/>
			<rect x="397.1" y="250.7" class="st6" width="12.2" height="83.6"/>
			<path class="st6" d="M262.3,308.9c-5,9.8-15,15.6-27.1,15.6c-16.4,0-29.8-12.6-31.4-28.7H279l0-2.7c0-3.1-0.4-6.2-1-9.1
				c-0.3-1.9-2.2-7.3-2.2-7.3c-6.1-17.2-21.6-28-40.6-28c-22,0-40.1,16.4-43.2,37.6c-0.1,0.3-0.1,0.6-0.1,0.9
				c-0.1,0.7-0.2,1.3-0.2,2c-0.1,1-0.1,2-0.2,3c0,0.2,0,0.4,0,0.6c0,0,0,0.1,0,0.1c0,1,0,2,0.1,2.9h0c1.6,22.5,20.5,40.3,43.6,40.3
				c16.7,0,30.6-8.1,37.8-21.7c0.9-1.7,1.7-3.6,2.4-5.5H262.3 M235.2,260.5c12.9,0,23.5,6.8,28.3,18.3c0,0,1.2,3.1,1.5,5.3l-60.2,0
				c0,0,0,0,0-0.1h0C208.6,270.5,220.7,260.5,235.2,260.5z"/>
			<polyline class="st6" points="497.5,250.7 482.7,250.7 462.4,281.3 442.1,250.7 427.4,250.7 455.1,292.5 427.4,334.3 
				442.1,334.3 462.4,303.6 482.7,334.3 497.5,334.3 469.8,292.5 497.5,250.7 			"/>
			<g>
				<path class="st5" d="M98.8,276.5l-9.4,9.4c0.1,0.4,0.1,0.7,0.2,1h-1.2l-9.5,9.5h23.8v-0.8c0-5.8-0.8-10.9-2.4-15.5
					C99.8,278.9,99.3,277.7,98.8,276.5"/>
				<path class="st6" d="M124.5,290.6c0,31.2-25.3,56.6-56.6,56.6c-31.2,0-56.6-25.3-56.6-56.6c0-31.2,25.3-56.6,56.6-56.6
					C99.1,234,124.5,259.4,124.5,290.6z"/>
				<path class="st8" d="M67.9,225.2c-36.1,0-65.4,29.3-65.4,65.4c0,36.1,29.3,65.4,65.4,65.4c36.1,0,65.4-29.3,65.4-65.4
					C133.3,254.5,104,225.2,67.9,225.2z M67.9,340.9c-27.7,0-50.3-22.5-50.3-50.3c0-27.7,22.5-50.3,50.3-50.3
					c27.8,0,50.3,22.5,50.3,50.3C118.1,318.4,95.6,340.9,67.9,340.9z"/>
				<path class="st9" d="M52.5,273.4c2.1-1.8,4.4-3.1,6.9-4.1c2.5-0.9,5.2-1.4,8.2-1.4c2.9,0,5.5,0.4,8,1.3c2.4,0.9,4.7,2.2,6.7,4
					c2,1.8,3.6,3.8,4.8,6.1c1,2,1.7,4.1,2.1,6.4l9.4-9.4c-1.5-3.1-3.3-5.9-5.6-8.4c-3.2-3.5-6.9-6.1-11.1-7.9
					c-4.2-1.8-8.9-2.7-14.1-2.7c-5.2,0-9.8,0.8-13.9,2.5c-4.1,1.7-7.8,4.1-11,7.4c-3.1,3.2-5.5,7-7,11.2c-1.6,4.3-2.3,9.1-2.3,14.4
					c0,2.2,0.2,4.4,0.6,6.5c0.4,2.1,1,4.2,1.7,6.3c0.8,2,1.7,3.9,2.8,5.7c1.1,1.8,2.3,3.4,3.7,4.9c1.7,1.8,3.5,3.3,5.4,4.7
					c1.2,0.8,2.5,1.6,3.9,2.3l8-8c-2.7-1-5.1-2.3-7.2-4.1c-2.1-2-3.8-4.1-5-6.6c-1.2-2.5-2-5.3-2.2-8.4h33.5l9.5-9.5h-43
					c0,0,0,0.1,0,0.1v-0.1h0c0.4-2.7,1.2-5.1,2.4-7.4C48.8,277.2,50.4,275.2,52.5,273.4z"/>
				<path class="st5" d="M98.7,276.4l-9.4,9.4c0.1,0.3,0.1,0.7,0.2,1h-1.2l-9.5,9.5h23.8v-0.8c0-5.8-0.8-10.9-2.3-15.5
					C99.8,278.8,99.2,277.6,98.7,276.4z"/>
				<path class="st10" d="M67.9,246.4c16.4,0,30.7,8.9,38.4,22.2l9.6-9.7c-10.3-15.5-27.9-25.8-48-25.8c-20,0-37.7,10.3-48,25.8
					l9.6,9.7C37.2,255.3,51.5,246.4,67.9,246.4z"/>
			</g>
		</g>
	</g>
	<g>
		<g>
			<path class="st6" d="M362.3,576.5c-0.7-0.6-1.5-1-2.3-1.5s-1.8-0.8-2.8-1c-1-0.3-2.2-0.4-3.3-0.4c-1.9,0-3.7,0.3-5.4,0.9
				c-1.7,0.6-3.1,1.5-4.3,2.7c-1.2,1.2-2.2,2.8-2.9,4.7c-0.7,1.9-1,4.1-1,6.7c0,2.3,0.3,4.3,0.9,6.2c0.6,1.8,1.5,3.4,2.7,4.6
				c1.2,1.3,2.7,2.2,4.4,2.9c1.7,0.7,3.7,1,5.9,1c0.7,0,1.3,0,2.1-0.1c0.7-0.1,1.4-0.2,2.1-0.3c0.7-0.1,1.3-0.3,1.9-0.5
				c0.6-0.2,1.1-0.4,1.5-0.7c0-0.9,0.1-1.9,0.1-2.8c0-0.9,0-1.9,0-2.8c0-1.1,0-2.2-0.1-3.3c0-1.1-0.1-2.1-0.2-3.1
				c0.8,0.2,1.5,0.2,2.2,0.2c0.3,0,0.7,0,1,0c0.3,0,0.7-0.1,1-0.2c-0.1,0.7-0.1,1.8-0.1,3.4c0,1.5,0,3.6,0,6.1c0,0.6,0,1.3,0,1.9
				c0,0.6,0,1.3,0,1.9c-0.7,0.2-1.5,0.5-2.5,0.8c-1,0.3-2,0.5-3.1,0.7c-1.1,0.2-2.2,0.3-3.3,0.5c-1.1,0.1-2.1,0.2-3,0.2
				c-2.8,0-5.3-0.3-7.5-1c-2.2-0.7-4.1-1.7-5.7-3.1c-1.6-1.4-2.8-3.1-3.6-5.2c-0.8-2.1-1.3-4.5-1.3-7.2c0-2.6,0.4-5,1.3-7.1
				c0.9-2.1,2.1-3.8,3.7-5.2c1.6-1.4,3.5-2.5,5.8-3.3c2.3-0.7,4.8-1.1,7.5-1.1c1.6,0,3,0.1,4.2,0.3c1.2,0.2,2.3,0.4,3.3,0.7
				c0.9,0.3,1.8,0.6,2.5,0.9c0.7,0.3,1.4,0.6,1.9,0.9c-0.2,0.4-0.5,1-0.7,1.7c-0.2,0.7-0.3,1.3-0.4,1.9h-0.6
				C363.6,577.6,363,577,362.3,576.5z"/>
			<path class="st6" d="M373.6,584.5c0-2.1,0-4.1-0.1-6c-0.1-2-0.2-4-0.3-6c0.9,0.1,1.8,0.1,2.7,0.2c0.9,0,1.8,0.1,2.7,0.1
				c0.9,0,1.8,0,2.7-0.1c0.9-0.1,1.8-0.1,2.7-0.1c1.3,0,2.6,0.1,3.7,0.4c1.2,0.2,2.2,0.7,3.1,1.2c0.9,0.6,1.6,1.3,2.1,2.3
				s0.8,2.1,0.8,3.5c0,1.5-0.3,2.8-1,3.8c-0.7,1.1-1.5,2-2.4,2.7c-1,0.7-2,1.2-3.1,1.6c-1.1,0.4-2.1,0.6-3,0.8
				c0.4,0.5,0.9,1.1,1.5,2c0.7,0.8,1.4,1.8,2.2,2.8c0.8,1,1.6,2.1,2.5,3.2c0.9,1.1,1.7,2.2,2.5,3.2c0.8,1,1.6,1.9,2.3,2.8
				c0.7,0.8,1.3,1.5,1.7,1.9c-0.5-0.1-0.9-0.1-1.4-0.1c-0.5,0-0.9,0-1.4,0c-0.4,0-0.9,0-1.4,0c-0.5,0-0.9,0-1.4,0.1
				c-0.5-0.7-1.2-1.6-2.1-2.9c-0.9-1.3-2-2.7-3.1-4.2c-1.2-1.5-2.3-3-3.5-4.5c-1.2-1.5-2.3-2.7-3.3-3.8h-1.8v3.4
				c0,2.1,0,4.1,0.1,6.1c0.1,2,0.2,4,0.3,5.9c-0.7-0.1-1.5-0.1-2.3-0.1c-0.8,0-1.6,0-2.3,0.1c0.1-1.9,0.2-3.9,0.3-5.9
				c0.1-2,0.1-4,0.1-6.1V584.5z M377.5,587.2c0.4,0.1,0.9,0.2,1.4,0.2c0.5,0,1.1,0,1.7,0c1,0,2-0.1,3-0.3c1-0.2,2-0.6,2.9-1.1
				c0.9-0.5,1.6-1.3,2.2-2.2c0.6-0.9,0.9-2.1,0.9-3.5c0-1.2-0.2-2.2-0.7-3c-0.5-0.8-1-1.4-1.8-1.9c-0.7-0.5-1.5-0.8-2.3-1
				c-0.8-0.2-1.7-0.3-2.5-0.3c-1.1,0-2,0-2.7,0.1c-0.7,0-1.3,0.1-1.8,0.2c-0.1,1.7-0.1,3.4-0.2,5.1c-0.1,1.7-0.1,3.4-0.1,5V587.2z"
				/>
			<path class="st6" d="M399.5,588.5c0-2.6,0.4-5,1.3-7.1c0.9-2.1,2.1-3.8,3.6-5.2c1.5-1.4,3.4-2.5,5.5-3.3c2.1-0.7,4.5-1.1,7-1.1
				c2.6,0,4.9,0.4,7.1,1.1c2.1,0.7,4,1.8,5.5,3.3c1.5,1.4,2.7,3.2,3.6,5.2c0.9,2.1,1.3,4.4,1.3,7.1c0,2.6-0.4,5-1.3,7.1
				c-0.9,2.1-2.1,3.8-3.6,5.2c-1.5,1.4-3.4,2.5-5.5,3.2c-2.1,0.7-4.5,1.1-7.1,1.1c-2.5,0-4.9-0.4-7-1.1c-2.1-0.7-4-1.8-5.5-3.2
				c-1.5-1.4-2.7-3.2-3.6-5.2C400,593.5,399.5,591.2,399.5,588.5z M429.9,588.5c0-2.6-0.3-4.8-1-6.7c-0.7-1.9-1.6-3.4-2.7-4.7
				c-1.2-1.2-2.5-2.1-4.1-2.7c-1.6-0.6-3.3-0.9-5.1-0.9c-1.8,0-3.5,0.3-5.1,0.9c-1.6,0.6-2.9,1.5-4.1,2.7c-1.2,1.2-2.1,2.8-2.7,4.7
				c-0.7,1.9-1,4.1-1,6.7c0,2.6,0.3,4.8,1,6.7c0.7,1.9,1.6,3.4,2.7,4.7c1.2,1.2,2.5,2.1,4.1,2.7c1.6,0.6,3.3,0.9,5.1,0.9
				c1.8,0,3.5-0.3,5.1-0.9c1.6-0.6,2.9-1.5,4.1-2.7c1.2-1.2,2.1-2.8,2.7-4.7C429.6,593.4,429.9,591.1,429.9,588.5z"/>
			<path class="st6" d="M465.3,587.6c0-4.4,0-7.8,0-10.2c0-2.4-0.1-4-0.2-4.9c0.3,0.1,0.7,0.1,1,0.2c0.3,0,0.6,0.1,0.9,0.1
				c0.4,0,0.9-0.1,1.4-0.2c-0.1,1.1-0.2,2.4-0.3,3.9c-0.1,1.5-0.2,3.1-0.2,4.9c-0.1,1.7-0.1,3.5-0.2,5.3c-0.1,1.8-0.1,3.6-0.1,5.3
				c0,2.1-0.4,4-1,5.6c-0.6,1.7-1.5,3-2.6,4.2c-1.1,1.2-2.5,2-4.1,2.6c-1.6,0.6-3.5,0.9-5.6,0.9c-4.7,0-8.1-1.1-10.2-3.2
				c-2.1-2.1-3.2-5.5-3.2-10c0-1.5,0-2.8,0.1-3.9c0.1-1.1,0.1-2.3,0.1-3.5c0-2.6,0-4.9-0.1-7c-0.1-2-0.1-3.7-0.2-5.1
				c0.4,0.1,0.8,0.1,1.2,0.2c0.4,0,0.8,0.1,1.2,0.1c0.3,0,0.7,0,1-0.1c0.3,0,0.7-0.1,1-0.2c-0.1,0.7-0.1,1.6-0.2,2.7
				c-0.1,1.1-0.1,2.4-0.2,3.8c-0.1,1.4-0.1,2.9-0.1,4.5c0,1.6,0,3.3,0,5c0,1.1,0,2.2,0,3.3c0,1.1,0.1,2.2,0.3,3.3
				c0.2,1.1,0.5,2.1,0.9,3.1c0.4,1,1,1.8,1.8,2.6c0.8,0.7,1.8,1.3,2.9,1.7c1.2,0.4,2.6,0.6,4.4,0.6c1.7,0,3.1-0.2,4.3-0.7
				c1.2-0.5,2.1-1.2,2.9-2c0.7-0.8,1.3-1.7,1.7-2.8c0.4-1.1,0.7-2.2,0.9-3.3c0.2-1.2,0.3-2.3,0.3-3.5
				C465.3,589.6,465.3,588.6,465.3,587.6z"/>
			<path class="st6" d="M477.3,584.5c0-2.1,0-4.1-0.1-6c-0.1-2-0.2-4-0.3-6c0.7,0.1,1.5,0.1,2.3,0.2c0.8,0,1.5,0.1,2.3,0.1
				c0.4,0,0.8,0,1.4,0c0.5,0,1.1-0.1,1.6-0.1c0.5,0,1.1,0,1.6-0.1c0.5,0,0.9,0,1.3,0c0.5,0,1,0,1.7,0c0.7,0,1.4,0.1,2.2,0.3
				c0.8,0.2,1.5,0.4,2.3,0.7c0.7,0.3,1.4,0.8,2,1.4c0.6,0.6,1.1,1.3,1.5,2.2c0.4,0.9,0.6,2,0.6,3.3c0,2.1-0.4,3.7-1.3,5
				c-0.9,1.3-2,2.3-3.3,3c-1.3,0.7-2.7,1.2-4.1,1.4c-1.4,0.2-2.7,0.4-3.8,0.4c-0.7,0-1.4,0-2,0c-0.6,0-1.2-0.1-1.8-0.1v2.6
				c0,2.1,0,4.1,0.1,6.1c0.1,2,0.2,4,0.3,5.9c-0.7-0.1-1.5-0.1-2.3-0.1c-0.8,0-1.6,0-2.3,0.1c0.1-1.9,0.2-3.9,0.3-5.9
				c0.1-2,0.1-4,0.1-6.1V584.5z M481.1,588c1.1,0.2,2.2,0.4,3.3,0.4c1,0,2-0.1,3-0.3c1-0.2,2-0.6,2.8-1.2c0.9-0.6,1.6-1.4,2.1-2.4
				c0.5-1,0.8-2.3,0.8-3.9c0-1.3-0.2-2.4-0.6-3.3c-0.4-0.8-0.9-1.5-1.6-2c-0.7-0.5-1.5-0.8-2.5-1c-1-0.2-2.1-0.3-3.3-0.3h-4.2V588z"
				/>
		</g>
		<g>
			<path class="st6" d="M45.2,508.4c0,0,0-0.1,0-0.1h0V508.4"/>
			<path class="st11" d="M98.8,497.8l-9.4,9.4c0.1,0.3,0.1,0.7,0.2,1h-1.2l-9.5,9.5h23.8V517c0-5.8-0.8-10.9-2.3-15.5
				C99.9,500.2,99.3,499,98.8,497.8"/>
			<path class="st6" d="M162.9,571.8c-0.7,0-1.2-0.5-1.2-1.2V455.5c0-0.7,0.5-1.2,1.2-1.2c0.7,0,1.2,0.5,1.2,1.2v115.1
				C164.2,571.3,163.6,571.8,162.9,571.8"/>
			<path class="st6" d="M336.7,481.8c12.9,0,23.5,6.8,28.3,18.3l0.8,1.9h12.9l-1.4-4c-6.1-17.2-21.6-28-40.6-28
				c-24.1,0-43.7,19.7-43.7,44c0,23.9,19.6,43.4,43.7,43.4c19.1,0,34.7-10.7,40.6-28l1.4-4h-12.7l-0.8,2
				c-4.5,11.5-15.1,18.4-28.4,18.4c-17.4,0-31.5-14.2-31.5-31.7C305.2,496.3,319.3,481.8,336.7,481.8"/>
			<rect x="397.1" y="472" class="st6" width="12.2" height="83.6"/>
			<path class="st6" d="M262.3,530.2c-5,9.8-15,15.6-27.1,15.6c-16.4,0-29.9-12.6-31.4-28.7H279l0-2.7c0-3.1-0.4-6.2-1-9.1
				c-0.3-1.9-2.2-7.3-2.2-7.3c-6.1-17.2-21.6-28-40.6-28c-22,0-40.1,16.4-43.2,37.6c-0.1,0.3-0.1,0.6-0.1,0.9
				c-0.1,0.7-0.1,1.3-0.2,2c-0.1,1-0.1,2-0.2,3c0,0.2,0,0.4,0,0.6c0,0,0,0.1,0,0.1c0,1,0,2,0.1,3h0c1.6,22.5,20.5,40.3,43.6,40.3
				c16.7,0,30.6-8.1,37.8-21.7c0.9-1.7,1.7-3.6,2.4-5.5H262.3 M235.2,481.8c12.9,0,23.5,6.8,28.3,18.3c0,0,1.2,3.1,1.5,5.3l-60.2,0
				c0,0,0,0,0-0.1h0C208.6,491.8,220.8,481.8,235.2,481.8z"/>
			<polyline class="st6" points="497.5,472 482.8,472 462.5,502.7 442.2,472 427.4,472 455.1,513.8 427.4,555.6 442.2,555.6 
				462.5,525 482.8,555.6 497.5,555.6 469.8,513.8 497.5,472 			"/>
			<path class="st6" d="M67.9,446.5c-36.1,0-65.4,29.3-65.4,65.4c0,36.1,29.3,65.4,65.4,65.4c36.1,0,65.4-29.3,65.4-65.4
				C133.3,475.8,104,446.5,67.9,446.5z M67.9,562.2c-27.7,0-50.3-22.5-50.3-50.3c0-27.8,22.5-50.3,50.3-50.3
				c27.8,0,50.3,22.5,50.3,50.3C118.2,539.7,95.7,562.2,67.9,562.2z"/>
			<path class="st6" d="M45.2,508.3c0,0,0-0.1,0-0.1h0V508.3z"/>
			<path class="st6" d="M52.6,494.7c2.1-1.8,4.4-3.1,6.9-4.1c2.5-0.9,5.2-1.4,8.2-1.4c2.9,0,5.5,0.4,8,1.3c2.4,0.9,4.7,2.2,6.7,4
				c2,1.8,3.6,3.8,4.8,6.1c1,2,1.7,4.1,2.1,6.4l9.4-9.4c-1.5-3.1-3.3-5.8-5.6-8.3c-3.2-3.5-6.9-6.1-11.1-7.9
				c-4.2-1.8-8.9-2.7-14.1-2.7c-5.2,0-9.8,0.8-13.9,2.5c-4.1,1.7-7.8,4.1-11,7.4c-3.1,3.2-5.5,7-7.1,11.2c-1.5,4.3-2.3,9.1-2.3,14.4
				c0,2.2,0.2,4.4,0.5,6.5c0.4,2.1,1,4.2,1.7,6.3c0.8,2,1.7,3.9,2.8,5.7c1.1,1.8,2.3,3.4,3.7,4.9c1.7,1.8,3.5,3.3,5.4,4.7
				c1.2,0.8,2.5,1.6,3.9,2.3l8-8c-2.7-1-5.1-2.3-7.2-4.1c-2.1-2-3.8-4.1-5-6.6c-1.2-2.5-2-5.3-2.2-8.4h33.5l9.5-9.5h-43
				c0,0,0,0.1,0,0.1v-0.1h0c0.4-2.7,1.2-5.1,2.4-7.4C48.8,498.5,50.5,496.5,52.6,494.7z"/>
			<path class="st11" d="M68,467.9c16.4,0,30.7,8.9,38.3,22.2l9.6-9.7C105.6,464.8,88,454.6,68,454.6c-21.1,0-39.6,11.4-49.6,28.4
				l9.8,9.9C35.3,478.1,50.4,467.9,68,467.9"/>
		</g>
	</g>
	<g>
	</g>
	<g>
	</g>
	<g>
	</g>
	<g>
	</g>
	<g>
	</g>
	<g>
	</g>
</g>
</svg>
