<svg id="Capa_1" data-name="Capa 1" xmlns="http://www.w3.org/2000/svg" width="9.5" height="10.8" viewBox="0 0 9.5 10.8">
  <title>loginPass_done</title>
  <g>
    <path d="M8.4,3.7H7V1.4A1.4,1.4,0,0,0,5.6,0H4A1.4,1.4,0,0,0,2.6,1.4V3.6H1.2A1.2,1.2,0,0,0,0,4.9V9.6a1.2,1.2,0,0,0,1.2,1.2H8.3A1.2,1.2,0,0,0,9.5,9.6V4.9A1,1,0,0,0,8.4,3.7ZM3.2,3.6V1.4A.9.9,0,0,1,4,.6H5.6a.9.9,0,0,1,.8.8V3.6H3.2ZM5.1,7.7v.7a.3.3,0,0,1-.3.3c-.2,0-.3-.1-.3-.2V7.7a1,1,0,0,1-.7-.9.9.9,0,0,1,1-1,.9.9,0,0,1,1,1A1,1,0,0,1,5.1,7.7Z" style="fill: #2e599d"/>
    <circle cx="4.8" cy="6.8" r="0.4" style="fill: #2e599d"/>
  </g>
</svg>
