<svg id="Capa_1" data-name="Capa 1" xmlns="http://www.w3.org/2000/svg" width="10.2" height="11.2" viewBox="0 0 10.2 11.2">
  <title>loginPass_hover</title>
  <g>
    <path d="M8.7,3.7H7.3V1.4A1.4,1.4,0,0,0,5.9,0H4.3A1.4,1.4,0,0,0,2.9,1.4V3.6H1.5A1.2,1.2,0,0,0,.3,4.9V9.6a1.2,1.2,0,0,0,1.2,1.3H8.7A1.2,1.2,0,0,0,9.9,9.6V4.9A1.2,1.2,0,0,0,8.7,3.7ZM3.5,3.6V1.4A.7.7,0,0,1,4.3.6H5.9a.7.7,0,0,1,.8.8V3.6a.1.1,0,0,1,.1.1H3.5ZM5.4,7.7v.8a.3.3,0,1,1-.6,0V7.7a1,1,0,0,1-.7-.9,1,1,0,0,1,1-1,.9.9,0,0,1,1,1A1,1,0,0,1,5.4,7.7Z" style="fill: #a2a8ae"/>
    <circle cx="5.1" cy="6.8" r="0.4" style="fill: #a2a8ae"/>
  </g>
</svg>
