<?xml version="1.0" encoding="utf-8"?>
<!-- Generator: Adobe Illustrator 23.0.1, SVG Export Plug-In . SVG Version: 6.00 Build 0)  -->
<svg version="1.1" id="Capa_1" xmlns="http://www.w3.org/2000/svg" xmlns:xlink="http://www.w3.org/1999/xlink" x="0px" y="0px"
	 width="19.2px" height="21px" viewBox="0 0 19.2 21" style="enable-background:new 0 0 19.2 21;" xml:space="preserve">
<style type="text/css">
	.st0{fill:none;stroke:#424C5A;stroke-width:1.2;stroke-linecap:round;stroke-linejoin:round;}
</style>
<g id="Group_228" transform="translate(36 67.91)">
	<path id="Path_110" class="st0" d="M-30-61.1v-3.8c0-1.3,1.1-2.4,2.4-2.4l0,0h2.4c1.3,0,2.4,1.1,2.4,2.4l0,0v3.8"/>
	<path id="Rectangle_65" class="st0" d="M-31.3-61h9.8c2.3,0,4.1,1.8,4.1,4.1v5.3c0,2.3-1.8,4.1-4.1,4.1h-9.8
		c-2.3,0-4.1-1.8-4.1-4.1v-5.3C-35.4-59.2-33.6-61-31.3-61z"/>
	<circle id="Ellipse_27" class="st0" cx="-26.4" cy="-54.2" r="1.4"/>
</g>
</svg>
