<?xml version="1.0" encoding="utf-8"?>
<!-- Generator: Adobe Illustrator 23.0.1, SVG Export Plug-In . SVG Version: 6.00 Build 0)  -->
<svg version="1.1" id="Capa_1" xmlns="http://www.w3.org/2000/svg" xmlns:xlink="http://www.w3.org/1999/xlink" x="0px" y="0px"
	 viewBox="0 0 42.3 42.3" style="enable-background:new 0 0 42.3 42.3;" xml:space="preserve">
<style type="text/css">
	.st0{fill:#FFFFFF;}
</style>
<g>
	<path class="st0" d="M13.8,20C13.8,20,13.8,20,13.8,20L13.8,20L13.8,20"/>
	<path class="st0" d="M16.2,15.6c0.7-0.6,1.4-1,2.2-1.3c0.8-0.3,1.7-0.5,2.6-0.5c0.9,0,1.8,0.1,2.6,0.4c0.8,0.3,1.5,0.7,2.2,1.3
		c0.7,0.6,1.2,1.2,1.6,2c0.3,0.6,0.6,1.3,0.7,2.1l3-3c-0.5-1-1.1-1.9-1.8-2.7c-1-1.1-2.2-2-3.6-2.5c-1.4-0.6-2.9-0.9-4.6-0.9
		c-1.7,0-3.2,0.3-4.5,0.8c-1.3,0.5-2.5,1.3-3.6,2.4c-1,1-1.8,2.3-2.3,3.6C10.3,18.7,10,20.3,10,22c0,0.7,0.1,1.4,0.2,2.1
		c0.1,0.7,0.3,1.4,0.6,2c0.3,0.7,0.5,1.3,0.9,1.9c0.4,0.6,0.7,1.1,1.2,1.6c0.5,0.6,1.1,1.1,1.8,1.5c0.4,0.3,0.8,0.5,1.3,0.7l2.6-2.6
		c-0.9-0.3-1.6-0.8-2.3-1.3c-0.7-0.6-1.2-1.3-1.6-2.1c-0.4-0.8-0.6-1.7-0.7-2.7h10.9l3.1-3.1H13.8c0,0,0,0,0,0v0l0,0
		c0.1-0.9,0.4-1.7,0.8-2.4C15,16.8,15.5,16.2,16.2,15.6z"/>
	<path class="st0" d="M31.7,17.8c-0.1-0.2-0.2-0.4-0.3-0.7l-2.6,2.6l-0.3,0.3l-3,3h6.9v-0.2C32.4,20.9,32.2,19.3,31.7,17.8z"/>
	<path class="st0" d="M13.8,20C13.8,20,13.8,20,13.8,20L13.8,20L13.8,20z"/>
	<path class="st0" d="M21.2,2.9c-6.4,0-12.3,3.4-15.6,8.8l2.7,2.7c2.5-4.8,7.5-7.9,13-7.9c5.1,0,9.8,2.7,12.5,7l2.6-2.7
		C32.9,5.9,27.2,2.9,21.2,2.9z"/>
	<path class="st0" d="M21.2,0C9.5,0,0,9.5,0,21.2c0,11.7,9.5,21.2,21.2,21.2c11.7,0,21.2-9.5,21.2-21.2C42.3,9.5,32.9,0,21.2,0z
		 M21.2,37.4c-9,0-16.3-7.3-16.3-16.3c0-2.7,0.6-5.2,1.8-7.4l-1.9-1.9l0.1-0.2c3.4-5.8,9.6-9.4,16.3-9.4c6.4,0,12.3,3.2,15.8,8.5
		l0.1,0.2l-1.9,1.9c1.4,2.4,2.2,5.2,2.2,8.2C37.4,30.2,30.2,37.4,21.2,37.4z"/>
</g>
</svg>
